<?xml version="1.0" encoding="UTF-8" standalone="no"?>
<svg
   xmlns:dc="http://purl.org/dc/elements/1.1/"
   xmlns:cc="http://creativecommons.org/ns#"
   xmlns:rdf="http://www.w3.org/1999/02/22-rdf-syntax-ns#"
   xmlns:svg="http://www.w3.org/2000/svg"
   xmlns="http://www.w3.org/2000/svg"
   xmlns:sodipodi="http://sodipodi.sourceforge.net/DTD/sodipodi-0.dtd"
   xmlns:inkscape="http://www.inkscape.org/namespaces/inkscape"
   version="1.1"
   x="0px"
   y="0px"
   viewBox="0 0 73.879158 83.564484"
   enable-background="new 0 0 100 100"
   xml:space="preserve"
   id="svg38"
   sodipodi:docname="noun_cogs_170064.svg"
   width="73.879158"
   height="83.564484"
   inkscape:version="1.0.2 (e86c870879, 2021-01-15, custom)"><metadata
     id="metadata44"><rdf:RDF><cc:Work
         rdf:about=""><dc:format>image/svg+xml</dc:format><dc:type
           rdf:resource="http://purl.org/dc/dcmitype/StillImage" /><dc:title></dc:title></cc:Work></rdf:RDF></metadata><defs
     id="defs42" /><sodipodi:namedview
     pagecolor="#ffffff"
     bordercolor="#666666"
     borderopacity="1"
     objecttolerance="10"
     gridtolerance="10"
     guidetolerance="10"
     inkscape:pageopacity="0"
     inkscape:pageshadow="2"
     inkscape:window-width="2160"
     inkscape:window-height="1346"
     id="namedview40"
     showgrid="false"
     fit-margin-top="0"
     fit-margin-left="0"
     fit-margin-right="0"
     fit-margin-bottom="0"
     inkscape:zoom="8.672"
     inkscape:cx="36.939"
     inkscape:cy="54.283156"
     inkscape:window-x="-11"
     inkscape:window-y="-11"
     inkscape:window-maximized="1"
     inkscape:current-layer="svg38" /><g
     id="g32"
     transform="translate(-13.061,-8.2168443)"><g
       id="g30"><path
         d="m 70.75,51.179 c 1.609,-0.839 3.096,-1.913 4.394,-3.141 l 4.48,1.835 c 0.827,0.335 1.767,0.027 2.231,-0.72 l 1.247,-2.009 1.247,-2.009 c 0.464,-0.747 0.322,-1.726 -0.345,-2.319 l -3.576,-3.147 c 0.541,-1.733 0.881,-3.574 0.925,-5.455 l 4.468,-1.882 c 0.821,-0.346 1.272,-1.244 1.072,-2.1 l -0.542,-2.317 -0.542,-2.317 c -0.205,-0.876 -1.002,-1.46 -1.892,-1.406 l -4.751,0.298 c -0.853,-1.671 -1.933,-3.18 -3.192,-4.514 l 1.835,-4.48 c 0.335,-0.827 0.027,-1.767 -0.72,-2.231 L 75.08,12.018 73.071,10.771 c -0.747,-0.464 -1.726,-0.322 -2.319,0.345 l -3.117,3.613 C 65.902,14.188 64.061,13.848 62.18,13.804 L 60.298,9.336 C 59.952,8.515 59.054,8.064 58.198,8.264 l -2.317,0.542 -2.316,0.542 c -0.877,0.205 -1.46,1.002 -1.406,1.892 l 0.297,4.751 c -1.734,0.868 -3.279,1.978 -4.625,3.284 l -4.454,-1.819 c -0.827,-0.335 -1.767,-0.027 -2.231,0.72 l -1.247,2.009 -1.247,2.009 c -0.464,0.747 -0.322,1.726 0.345,2.319 l 3.607,3.184 c -0.557,1.759 -0.855,3.59 -0.899,5.471 l -4.431,1.851 c -0.801,0.342 -1.256,1.218 -1.102,2.063 l 0.542,2.317 0.542,2.317 c 0.205,0.876 1.002,1.46 1.892,1.406 l 4.793,-0.307 c 0.874,1.666 1.954,3.175 3.233,4.504 l -1.819,4.454 c -0.335,0.827 -0.027,1.767 0.72,2.231 l 2.009,1.247 2.009,1.247 c 0.747,0.464 1.726,0.322 2.319,-0.345 l 3.184,-3.607 c 1.759,0.557 3.59,0.855 5.471,0.899 l 1.852,4.431 c 0.346,0.821 1.244,1.272 2.1,1.072 l 2.316,-0.542 2.317,-0.542 c 0.877,-0.205 1.46,-1.002 1.406,-1.892 z m -7.014,-7.361 c -5.608,1.312 -11.218,-2.17 -12.531,-7.778 -1.312,-5.608 2.17,-11.218 7.778,-12.531 5.608,-1.312 11.218,2.17 12.531,7.778 1.313,5.609 -2.17,11.219 -7.778,12.531 z M 13.061,57.514 v 1.461 1.461 c 0,0.553 0.395,1.014 0.935,1.106 l 2.909,0.487 c 0.29,1.119 0.724,2.172 1.303,3.146 l -1.711,2.409 c -0.316,0.448 -0.263,1.053 0.118,1.435 l 1.027,1.027 1.027,1.027 c 0.382,0.382 0.987,0.434 1.435,0.118 l 2.409,-1.711 c 0.974,0.579 2.027,1.014 3.146,1.303 l 0.487,2.909 c 0.092,0.54 0.566,0.935 1.106,0.935 h 1.461 1.461 c 0.553,0 1.014,-0.395 1.106,-0.935 l 0.487,-2.909 c 1.08,-0.276 2.12,-0.711 3.067,-1.264 l 2.422,1.724 c 0.448,0.316 1.053,0.263 1.435,-0.118 l 1.027,-1.027 1.027,-1.027 c 0.382,-0.382 0.434,-0.987 0.118,-1.435 l -1.698,-2.383 c 0.566,-0.961 1.027,-2.014 1.316,-3.133 l 2.936,-0.5 c 0.54,-0.092 0.935,-0.566 0.935,-1.106 v -1.461 -1.461 c 0,-0.553 -0.395,-1.014 -0.935,-1.106 L 40.536,56 c -0.277,-1.119 -0.711,-2.172 -1.277,-3.146 l 1.725,-2.422 C 41.3,49.984 41.247,49.379 40.866,48.997 L 39.839,47.97 38.812,46.943 C 38.43,46.561 37.825,46.509 37.377,46.824 l -2.37,1.725 c -0.961,-0.566 -2.014,-1.027 -3.133,-1.316 l -0.5,-2.936 c -0.092,-0.54 -0.566,-0.935 -1.106,-0.935 h -1.461 -1.461 c -0.553,0 -1.014,0.395 -1.106,0.935 l -0.487,2.883 c -1.158,0.276 -2.238,0.724 -3.225,1.317 l -2.409,-1.711 c -0.448,-0.316 -1.053,-0.263 -1.435,0.119 l -1.027,1.027 -1.027,1.027 c -0.382,0.382 -0.434,0.987 -0.118,1.435 l 1.711,2.409 c -0.579,0.974 -1.014,2.027 -1.303,3.146 l -2.909,0.487 c -0.528,0.091 -0.923,0.551 -0.95,1.078 z m 9.137,1.481 c 0,-3.538 2.868,-6.405 6.406,-6.405 3.538,0 6.405,2.868 6.405,6.405 0,3.538 -2.868,6.405 -6.405,6.405 -3.537,0 -6.406,-2.867 -6.406,-6.405 z m 19.461,17.293 -0.033,1.41 c -0.013,0.533 0.358,0.987 0.877,1.088 l 2.796,0.536 c 0.254,1.086 0.649,2.113 1.186,3.066 l -1.706,2.286 c -0.315,0.425 -0.278,1.01 0.082,1.387 l 0.967,1.014 0.967,1.014 c 0.36,0.377 0.943,0.442 1.382,0.147 l 2.364,-1.596 c 0.927,0.581 1.933,1.024 3.006,1.329 l 0.404,2.819 c 0.077,0.523 0.525,0.915 1.046,0.927 l 1.41,0.033 1.41,0.033 c 0.534,0.013 0.987,-0.358 1.088,-0.877 l 0.536,-2.796 c 1.048,-0.242 2.061,-0.638 2.989,-1.149 l 2.298,1.719 c 0.425,0.315 1.01,0.278 1.387,-0.082 l 1.014,-0.967 1.014,-0.967 c 0.377,-0.36 0.442,-0.943 0.147,-1.382 l -1.584,-2.338 c 0.568,-0.914 1.037,-1.92 1.342,-2.993 l 2.844,-0.416 c 0.523,-0.077 0.915,-0.525 0.927,-1.046 l 0.033,-1.41 0.033,-1.41 c 0.013,-0.534 -0.358,-0.987 -0.877,-1.088 l -2.771,-0.536 c -0.241,-1.086 -0.636,-2.112 -1.16,-3.065 l 1.719,-2.298 c 0.315,-0.425 0.278,-1.01 -0.082,-1.387 L 67.747,66.279 66.78,65.265 c -0.36,-0.377 -0.943,-0.442 -1.382,-0.147 l -2.326,1.61 c -0.914,-0.568 -1.92,-1.037 -2.993,-1.342 l -0.416,-2.844 c -0.077,-0.523 -0.525,-0.915 -1.046,-0.927 l -1.41,-0.033 -1.41,-0.033 c -0.534,-0.013 -0.987,0.358 -1.088,0.877 l -0.536,2.771 c -1.124,0.24 -2.176,0.648 -3.142,1.197 L 48.745,64.688 C 48.32,64.373 47.735,64.41 47.358,64.77 l -1.014,0.967 -1.014,0.967 c -0.377,0.36 -0.442,0.943 -0.147,1.382 l 1.596,2.364 c -0.581,0.927 -1.024,1.933 -1.329,3.006 l -2.818,0.404 c -0.51,0.077 -0.902,0.512 -0.939,1.02 z m 8.816,0.228 c 0.081,-3.414 2.914,-6.115 6.327,-6.035 3.414,0.081 6.115,2.914 6.035,6.327 -0.081,3.414 -2.913,6.115 -6.327,6.035 -3.414,-0.081 -6.116,-2.914 -6.035,-6.327 z"
         id="path28" /></g></g></svg>
